<svg xmlns="http://www.w3.org/2000/svg" xml:space="preserve" width="128" height="128">
  <g style="display:inline">
    <path d="M48 23c.35-1.716 2.564-2.175 4-3.405 1.263-1.082 2.249-2.456 3.462-3.595 1.127-1.058 2.213-2.203 3.538-3 1.538-.926 3.237-1.66 5-2 1.637-.315 3.398-.46 5 0 3.023.867 5.797 2.756 8 5 1.362 1.387 2.3 3.187 3 5 .613 1.585 1.069 3.302 1 5-.098 2.425-1.034 4.774-2 7-.774 1.783-2.065 3.296-3 5-2.51 4.574-5.003 9.18-7 14-1.614 3.895-.58 9.535-4 12-.54.39-1.475.41-2 0-1.083-.846-.977-2.626-1-4-.08-4.772 1.34-9.525 3-14 1.453-3.916 3.925-7.375 6-11 .966-1.687 2.209-3.225 3-5 .71-1.593 1.687-3.263 1.538-5-.16-1.862-1.336-3.569-2.538-5-1.072-1.276-2.419-2.473-4-3s-3.378-.383-5 0c-1.45.342-2.723 1.231-4 2-2.457 1.479-4.397 3.798-7 5-1.248.576-2.751 1.574-4 1-.677-.311-1.149-1.27-1-2" style="display:inline;fill:#705734;fill-opacity:1;stroke:none;stroke-width:1.00157;stroke-dasharray:none;stroke-opacity:.139809"/>
  </g>
  <path d="M64 112 16 64v48z" style="display:inline;fill:#825d41;fill-opacity:1;stroke:none;stroke-width:2;stroke-opacity:.139809"/>
  <path d="m16 16 96 96H64L16 64Z" style="display:inline;fill:#886f3b;fill-opacity:1;stroke:none;stroke-width:1.00157;stroke-dasharray:none;stroke-opacity:.139809"/>
  <path d="m64 64 48-48v96z" style="display:inline;fill:#825d41;fill-opacity:1;stroke:none;stroke-width:2;stroke-opacity:.139809"/>
  <g style="display:inline">
    <path d="M62 80s1.01 4.897 0 7c-.925 1.924-2.866 4.036-5 4-3.073-.052-3.927-6-7-6-2 0 0 4 0 4s2.258 3.278 4 4c1.848.765 4.086.58 6 0 1.15-.348 2.433-.94 3-2 .315-.588 0-2 0-2 0-.482 2-.476 2 0 0 0-.315 1.412 0 2 .567 1.06 1.85 1.652 3 2 1.914.58 4.152.765 6 0 1.742-.722 4-4 4-4s2-4 0-4c-3.073 0-3.927 5.948-7 6-2.134.036-4.075-2.076-5-4-1.01-2.103 0-7 0-7zm9-4c0 2-2 4-5 4h-4c-3 0-5-2-5-4s2-4 5-4h4c3 0 5 2 5 4" style="display:inline;stroke-width:1.00157;stroke-opacity:.139809"/>
    <circle cx="60.5" cy="74.5" r="1.5" style="fill:#fff;fill-opacity:1;stroke:none;stroke-width:1.00157;stroke-dasharray:none;stroke-opacity:.139809"/>
  </g>
  <g style="display:inline">
    <circle cx="40" cy="64" r="10" style="fill:#000;stroke-width:2"/>
    <circle cx="36" cy="60" r="2.399" style="fill:#fff;fill-opacity:1;stroke:none;stroke-width:1.20151;stroke-dasharray:none;stroke-opacity:.139809"/>
  </g>
  <g style="display:inline" transform="translate(48)">
    <circle cx="40" cy="64" r="10" style="fill:#000;stroke-width:2"/>
    <circle cx="36" cy="60" r="2.399" style="fill:#fff;fill-opacity:1;stroke:none;stroke-width:1.20151;stroke-dasharray:none;stroke-opacity:.139809"/>
  </g>
</svg>
